<?xml version="1.0" encoding="UTF-8" standalone="no"?>
<svg
   height="48"
   width="48"
   version="1.1"
   id="svg4"
   sodipodi:docname="air.svg"
   inkscape:version="1.2.2 (732a01da63, 2022-12-09)"
   xmlns:inkscape="http://www.inkscape.org/namespaces/inkscape"
   xmlns:sodipodi="http://sodipodi.sourceforge.net/DTD/sodipodi-0.dtd"
   xmlns="http://www.w3.org/2000/svg"
   xmlns:svg="http://www.w3.org/2000/svg">
  <defs
     id="defs8" />
  <sodipodi:namedview
     id="namedview6"
     pagecolor="#ffffff"
     bordercolor="#000000"
     borderopacity="0.25"
     inkscape:showpageshadow="2"
     inkscape:pageopacity="0.0"
     inkscape:pagecheckerboard="0"
     inkscape:deskcolor="#d1d1d1"
     showgrid="false"
     inkscape:zoom="17.270833"
     inkscape:cx="24.115803"
     inkscape:cy="24.028951"
     inkscape:window-width="1920"
     inkscape:window-height="1009"
     inkscape:window-x="-8"
     inkscape:window-y="-8"
     inkscape:window-maximized="1"
     inkscape:current-layer="svg4" />
  <path
     d="M23.05 40q-2.1 0-3.55-1.075-1.45-1.075-1.95-2.975-.15-.65.3-1.15.45-.5 1.2-.5.45 0 .875.35t.725.95q.3.7.925 1.05.625.35 1.475.35 1.2 0 1.95-.75t.75-1.95q0-1.2-.75-1.95t-1.95-.75H5.5q-.65 0-1.075-.425Q4 30.75 4 30.1q0-.65.425-1.075Q4.85 28.6 5.5 28.6h17.55q2.5 0 4.1 1.6 1.6 1.6 1.6 4.1 0 2.5-1.6 4.1-1.6 1.6-4.1 1.6ZM5.5 19.6q-.65 0-1.075-.425Q4 18.75 4 18.1q0-.65.425-1.075Q4.85 16.6 5.5 16.6h25.65q1.75 0 2.775-1.025T34.95 12.8q0-1.75-1.025-2.775T31.15 9q-1.4 0-2.225.625-.825.625-1.175 1.625-.2.6-.625.975t-.975.375q-.7 0-1.125-.5-.425-.5-.275-1.1.5-2.05 2.15-3.525T31.15 6Q34 6 35.975 7.975T37.95 12.8q0 2.85-1.975 4.825T31.15 19.6ZM39 35.65q-.6.1-1.1-.325-.5-.425-.5-1.125 0-.55.375-.975.375-.425.975-.625 1.1-.35 1.675-1.2T41 29.2q0-1.75-.925-2.675-.925-.925-2.675-.925H5.5q-.65 0-1.075-.425Q4 24.75 4 24.1q0-.65.425-1.075Q4.85 22.6 5.5 22.6h31.9q2.95 0 4.775 1.825Q44 26.25 44 29.2q0 2.55-1.35 4.25-1.35 1.7-3.65 2.2Z"
     id="path2"
     style="fill:#24609b;fill-opacity:1" />
</svg>
