<?xml version="1.0" encoding="UTF-8" standalone="no"?>
<svg
   height="48"
   width="48"
   version="1.1"
   id="svg4"
   sodipodi:docname="visibility.svg"
   inkscape:version="1.2.2 (732a01da63, 2022-12-09)"
   xmlns:inkscape="http://www.inkscape.org/namespaces/inkscape"
   xmlns:sodipodi="http://sodipodi.sourceforge.net/DTD/sodipodi-0.dtd"
   xmlns="http://www.w3.org/2000/svg"
   xmlns:svg="http://www.w3.org/2000/svg">
  <defs
     id="defs8" />
  <sodipodi:namedview
     id="namedview6"
     pagecolor="#ffffff"
     bordercolor="#000000"
     borderopacity="0.25"
     inkscape:showpageshadow="2"
     inkscape:pageopacity="0.0"
     inkscape:pagecheckerboard="0"
     inkscape:deskcolor="#d1d1d1"
     showgrid="false"
     inkscape:zoom="17.270833"
     inkscape:cx="24.115803"
     inkscape:cy="24.028951"
     inkscape:window-width="1920"
     inkscape:window-height="1009"
     inkscape:window-x="-8"
     inkscape:window-y="-8"
     inkscape:window-maximized="1"
     inkscape:current-layer="svg4" />
  <path
     d="M24 31.5q3.55 0 6.025-2.475Q32.5 26.55 32.5 23q0-3.55-2.475-6.025Q27.55 14.5 24 14.5q-3.55 0-6.025 2.475Q15.5 19.45 15.5 23q0 3.55 2.475 6.025Q20.45 31.5 24 31.5Zm0-2.9q-2.35 0-3.975-1.625T18.4 23q0-2.35 1.625-3.975T24 17.4q2.35 0 3.975 1.625T29.6 23q0 2.35-1.625 3.975T24 28.6Zm0 9.4q-6.9 0-12.575-3.75-5.675-3.75-8.775-9.9-.15-.25-.225-.6-.075-.35-.075-.75t.075-.75q.075-.35.225-.6 3.1-6.15 8.775-9.9Q17.1 8 24 8q6.9 0 12.575 3.75 5.675 3.75 8.775 9.9.15.25.225.6.075.35.075.75t-.075.75q-.075.35-.225.6-3.1 6.15-8.775 9.9Q30.9 38 24 38Zm0-15Zm0 12q6.05 0 11.125-3.275T42.85 23q-2.65-5.45-7.725-8.725Q30.05 11 24 11t-11.125 3.275Q7.8 17.55 5.1 23q2.7 5.45 7.775 8.725Q17.95 35 24 35Z"
     id="path2"
     style="fill:#24609b;fill-opacity:1" />
</svg>
