<?xml version="1.0" encoding="UTF-8" standalone="no"?>
<svg
   height="48"
   width="48"
   version="1.1"
   id="svg4"
   sodipodi:docname="water.svg"
   inkscape:version="1.2.2 (732a01da63, 2022-12-09)"
   xmlns:inkscape="http://www.inkscape.org/namespaces/inkscape"
   xmlns:sodipodi="http://sodipodi.sourceforge.net/DTD/sodipodi-0.dtd"
   xmlns="http://www.w3.org/2000/svg"
   xmlns:svg="http://www.w3.org/2000/svg">
  <defs
     id="defs8" />
  <sodipodi:namedview
     id="namedview6"
     pagecolor="#ffffff"
     bordercolor="#000000"
     borderopacity="0.25"
     inkscape:showpageshadow="2"
     inkscape:pageopacity="0.0"
     inkscape:pagecheckerboard="0"
     inkscape:deskcolor="#d1d1d1"
     showgrid="false"
     inkscape:zoom="17.270833"
     inkscape:cx="24.115803"
     inkscape:cy="24.028951"
     inkscape:window-width="1920"
     inkscape:window-height="1009"
     inkscape:window-x="-8"
     inkscape:window-y="-8"
     inkscape:window-maximized="1"
     inkscape:current-layer="svg4" />
  <path
     d="M24 44q-6.35 0-11.175-4.425Q8 35.15 8 27.6q0-4.8 3.675-10.425Q15.35 11.55 22.85 5q.25-.2.55-.325.3-.125.6-.125t.6.125q.3.125.55.325 7.5 6.55 11.175 12.175Q40 22.8 40 27.6q0 7.55-4.825 11.975T24 44Zm0-3q5.5 0 9.25-3.8T37 27.6q0-3.95-3.325-8.975Q30.35 13.6 24 8q-6.35 5.6-9.675 10.625Q11 23.65 11 27.6q0 5.8 3.75 9.6T24 41Zm0-11.55Zm-.05 8.15q.8 0 1.225-.275.425-.275.425-.825 0-.55-.425-.85-.425-.3-1.275-.3-2.1 0-4.275-1.325Q17.45 32.7 16.85 29.35q-.1-.45-.45-.725-.35-.275-.75-.275-.55 0-.85.425-.3.425-.2.875.75 4.2 3.55 6.075t5.8 1.875Z"
     id="path2"
     style="fill:#24609b;fill-opacity:1" />
</svg>
